<svg width="31" height="20" viewBox="0 0 31 20" fill="none" xmlns="http://www.w3.org/2000/svg">
<path fill-rule="evenodd" clip-rule="evenodd" d="M0.453461 0.45432C1.05947 -0.150047 2.04361 -0.151641 2.65159 0.450761L11.2733 8.99325C11.5659 9.28315 11.7303 9.6769 11.7303 10.0876C11.7303 10.4982 11.5659 10.892 11.2733 11.1819L2.82832 19.5492C2.22033 20.1516 1.23619 20.15 0.630183 19.5457C0.0241743 18.9413 0.0257771 17.963 0.633764 17.3606L7.97428 10.0876L0.457041 2.63937C-0.150946 2.03697 -0.152549 1.05869 0.453461 0.45432ZM12.2248 18.4549C12.2248 17.6016 12.9207 16.9099 13.7791 16.9099H29.4457C30.3041 16.9099 31 17.6016 31 18.4549C31 19.3083 30.3041 20 29.4457 20H13.7791C12.9207 20 12.2248 19.3083 12.2248 18.4549Z" fill="white"/>
</svg>
